<?xml version="1.0" encoding="UTF-8" standalone="no"?>
<svg
   viewBox="0 0 24 24"
   version="1.1"
   id="svg7"
   sodipodi:docname="4801301_camera_cctv_security_surveillance_video_icon.svg"
   inkscape:version="1.1 (c68e22c387, 2021-05-23)"
   xmlns:inkscape="http://www.inkscape.org/namespaces/inkscape"
   xmlns:sodipodi="http://sodipodi.sourceforge.net/DTD/sodipodi-0.dtd"
   xmlns="http://www.w3.org/2000/svg"
   xmlns:svg="http://www.w3.org/2000/svg">
  <defs
     id="defs11" />
  <sodipodi:namedview
     id="namedview9"
     pagecolor="#ffffff"
     bordercolor="#666666"
     borderopacity="1.0"
     inkscape:pageshadow="2"
     inkscape:pageopacity="0.0"
     inkscape:pagecheckerboard="0"
     showgrid="false"
     inkscape:zoom="35.916667"
     inkscape:cx="12"
     inkscape:cy="9.7308585"
     inkscape:window-width="1857"
     inkscape:window-height="1051"
     inkscape:window-x="54"
     inkscape:window-y="-9"
     inkscape:window-maximized="1"
     inkscape:current-layer="svg7" />
  <title
     id="title2" />
  <g
     data-name="Layer 2"
     id="Layer_2">
    <path
       d="M19,2H4v8h7v4.28L4,16.61V14H2v8H4V18.72l9-3V10h7V4h2V2H19ZM18,8H6V4H18Z"
       id="path4" />
  </g>
  <path
     style="fill:#000000;stroke-width:0.0278422"
     d="m 2.0185615,18 v -3.99536 h 0.9883991 0.988399 v 1.310905 c 0,1.036727 0.00728,1.308331 0.034803,1.298597 0.019141,-0.0068 1.5976293,-0.5309 3.5077506,-1.164733 l 3.4729478,-1.152425 3.7e-4,-2.150812 3.7e-4,-2.1508124 H 7.5174014 4.0232019 V 6 2.0046404 h 8.9791181 8.979119 v 0.988399 0.9883991 h -1.002321 -1.00232 v 3.0069606 3.0069605 h -3.494069 -3.494068 l -0.0071,2.8584694 -0.0071,2.85847 -4.4825986,1.494196 -4.4825987,1.494195 -0.00718,1.647335 -0.00718,1.647335 H 3.0067398 2.0185615 Z M 18,6 V 3.9814385 H 12 6 V 6 8.0185615 h 6 6 z"
     id="path50" />
</svg>
