<?xml version="1.0" encoding="UTF-8" standalone="no"?>
<svg
   enable-background="new 0 0 300 300"
   height="300px"
   id="Layer_1"
   version="1.1"
   viewBox="0 0 300 300"
   width="300px"
   xml:space="preserve"
   sodipodi:docname="1642853_air_conditioner_hotel_icon.svg"
   inkscape:version="1.1 (c68e22c387, 2021-05-23)"
   xmlns:inkscape="http://www.inkscape.org/namespaces/inkscape"
   xmlns:sodipodi="http://sodipodi.sourceforge.net/DTD/sodipodi-0.dtd"
   xmlns="http://www.w3.org/2000/svg"
   xmlns:svg="http://www.w3.org/2000/svg"><defs
     id="defs27" /><sodipodi:namedview
     id="namedview25"
     pagecolor="#ffffff"
     bordercolor="#666666"
     borderopacity="1.0"
     inkscape:pageshadow="2"
     inkscape:pageopacity="0.0"
     inkscape:pagecheckerboard="0"
     showgrid="false"
     inkscape:zoom="2.8733333"
     inkscape:cx="150"
     inkscape:cy="149.47796"
     inkscape:window-width="1857"
     inkscape:window-height="1051"
     inkscape:window-x="54"
     inkscape:window-y="-9"
     inkscape:window-maximized="1"
     inkscape:current-layer="Layer_1" /><path
     d="  M34.5,186.5c0,8.284,6.716,15,15,15h204c8.284,0,15-6.716,15-15v-52c0-8.284-6.716-15-15-15h-204c-8.284,0-15,6.716-15,15V186.5z"
     fill="none"
     stroke="#000000"
     stroke-linecap="round"
     stroke-linejoin="round"
     stroke-miterlimit="10"
     stroke-width="7"
     id="path2" /><rect
     fill="none"
     height="27"
     stroke="#000000"
     stroke-linecap="round"
     stroke-linejoin="round"
     stroke-miterlimit="10"
     stroke-width="7"
     width="144"
     x="60.5"
     y="174.5"
     id="rect4" /><circle
     cx="224.667"
     cy="183.5"
     r="5"
     id="circle6" /><circle
     cx="244.667"
     cy="183.5"
     r="5"
     id="circle8" /><line
     fill="none"
     stroke="#000000"
     stroke-linecap="round"
     stroke-linejoin="round"
     stroke-miterlimit="10"
     stroke-width="7"
     x1="60"
     x2="245"
     y1="139.5"
     y2="139.5"
     id="line10" /><line
     fill="none"
     stroke="#000000"
     stroke-linecap="round"
     stroke-linejoin="round"
     stroke-miterlimit="10"
     stroke-width="7"
     x1="60"
     x2="245"
     y1="155.5"
     y2="155.5"
     id="line12" /><line
     fill="none"
     stroke="#000000"
     stroke-linecap="round"
     stroke-linejoin="round"
     stroke-miterlimit="10"
     stroke-width="7"
     x1="72.5"
     x2="72.5"
     y1="222"
     y2="240"
     id="line14" /><line
     fill="none"
     stroke="#000000"
     stroke-linecap="round"
     stroke-linejoin="round"
     stroke-miterlimit="10"
     stroke-width="7"
     x1="102.5"
     x2="102.5"
     y1="222"
     y2="250"
     id="line16" /><line
     fill="none"
     stroke="#000000"
     stroke-linecap="round"
     stroke-linejoin="round"
     stroke-miterlimit="10"
     stroke-width="7"
     x1="132.5"
     x2="132.5"
     y1="222"
     y2="260"
     id="line18" /><line
     fill="none"
     stroke="#000000"
     stroke-linecap="round"
     stroke-linejoin="round"
     stroke-miterlimit="10"
     stroke-width="7"
     x1="162.5"
     x2="162.5"
     y1="222"
     y2="250"
     id="line20" /><line
     fill="none"
     stroke="#000000"
     stroke-linecap="round"
     stroke-linejoin="round"
     stroke-miterlimit="10"
     stroke-width="7"
     x1="192.5"
     x2="192.5"
     y1="222"
     y2="240"
     id="line22" /><path
     style="fill:#000000;stroke-width:0.348028"
     d="M 48.37587,204.76632 C 40.565681,203.8471 34.990097,199.63686 32.252714,192.59139 l -0.930208,-2.39417 -0.09853,-28.60839 c -0.107083,-31.09172 -0.1198,-30.8488 1.830542,-34.96798 2.325657,-4.91186 7.30957,-8.84899 12.641267,-9.98619 1.347853,-0.28748 29.876686,-0.39336 105.988365,-0.39336 91.11061,0 104.39309,0.0649 106.13377,0.51824 6.15212,1.60243 11.17721,6.29638 13.20374,12.33369 0.76097,2.267 0.76881,2.52616 0.88463,29.22757 0.12143,27.9929 0.006,31.05138 -1.30574,34.55695 -1.95982,5.23809 -6.39943,9.35156 -12.18988,11.29439 -1.8426,0.61824 -5.78428,0.64364 -105.45243,0.67965 -56.946059,0.0206 -104.008124,-0.0179 -104.58237,-0.0855 z m 8.87471,-19.12024 v -12.38176 l 1.017312,-1.01731 1.017312,-1.01731 h 72.922226 c 53.78979,0 73.1504,0.10396 73.79191,0.39625 1.84176,0.83916 1.9473,1.62687 1.9473,14.53454 v 11.86735 h 24.00086 c 23.53623,0 24.03872,-0.0142 25.95594,-0.73149 2.65098,-0.99185 5.39893,-3.74401 6.39412,-6.40389 0.73228,-1.95719 0.7367,-2.16909 0.64448,-30.91534 l -0.0928,-28.94464 -0.79457,-1.59607 c -1.09981,-2.20922 -3.37132,-4.42314 -5.64395,-5.50085 l -1.91415,-0.90772 H 151.39211 46.287703 l -1.613501,0.80276 c -2.607743,1.29743 -4.347863,3.02588 -5.59346,5.55596 l -1.145707,2.32719 v 28.54568 c 0,32.13207 -0.121474,30.58014 2.639062,33.71627 2.934286,3.33353 4.888808,4.01706 11.543072,4.03687 l 5.133411,0.0153 z m 144.08353,2.28895 v -10.0928 h -68.7355 -68.735501 v 10.0928 10.09281 h 68.735501 68.7355 z"
     id="path66" /><path
     style="fill:#000000;stroke-width:0.348028"
     d="m 58.050708,142.16829 c -0.410773,-0.28771 -0.928423,-1.07326 -1.150334,-1.74566 -0.344265,-1.04313 -0.307073,-1.3876 0.253439,-2.34732 0.361301,-0.61864 1.03987,-1.31908 1.50793,-1.55653 0.672283,-0.34107 20.464586,-0.41432 94.238047,-0.34881 l 93.38702,0.0829 1.01553,1.13658 c 1.34898,1.50979 1.34839,2.93445 -0.002,4.28462 l -1.01736,1.01732 H 152.5404 c -82.849652,0 -93.829619,-0.0608 -94.489692,-0.52313 z"
     id="path105" /><path
     style="fill:#000000;stroke-width:0.348028"
     d="m 58.050708,158.17758 c -0.410773,-0.28772 -0.928423,-1.07327 -1.150334,-1.74566 -0.344265,-1.04314 -0.307073,-1.3876 0.253439,-2.34733 0.361301,-0.61864 1.03987,-1.31908 1.50793,-1.55653 0.672283,-0.34107 20.464586,-0.41432 94.238047,-0.34881 l 93.38702,0.0829 1.01553,1.13658 c 1.34898,1.50979 1.34839,2.93445 -0.002,4.28462 l -1.01736,1.01732 H 152.5404 c -82.849652,0 -93.829619,-0.0608 -94.489692,-0.52312 z"
     id="path144" /><path
     style="fill:#000000;stroke-width:0.348028"
     d="m 222.32169,187.60232 c -2.3014,-1.40325 -3.01945,-3.68189 -1.89331,-6.00819 1.77136,-3.65913 6.61107,-3.77808 8.43277,-0.20725 2.1225,4.16046 -2.57981,8.62979 -6.53946,6.21544 z"
     id="path183" /><path
     style="fill:#000000;stroke-width:0.348028"
     d="m 242.49057,187.71068 c -4.33204,-2.13561 -2.67811,-8.94038 2.173,-8.94038 1.76517,0 3.06468,0.7472 4.01764,2.31009 2.45425,4.02509 -1.9364,8.72755 -6.19064,6.63029 z"
     id="path222" /><path
     style="fill:#000000;stroke-width:0.348028"
     d="m 190.80626,242.89555 c -1.52006,-0.88535 -1.65313,-1.86008 -1.65313,-12.10911 v -9.73536 l 0.86905,-1.03279 c 0.47797,-0.56804 1.26705,-1.1327 1.7535,-1.25479 1.17097,-0.29389 3.08904,0.63762 3.59373,1.74529 0.26673,0.58541 0.39625,4.11508 0.39625,10.79886 v 9.92919 l -1.01731,1.01731 c -1.07401,1.07401 -2.73527,1.34431 -3.94209,0.6414 z"
     id="path261" /><path
     style="fill:#000000;stroke-width:0.348028"
     d="m 161.00118,252.87859 c -1.74011,-0.96447 -1.75292,-1.08774 -1.76611,-16.99723 l -0.0123,-14.8727 0.99998,-1.11918 c 1.40686,-1.57454 3.20571,-1.57454 4.61256,0 l 0.99999,1.11918 v 14.76932 c 0,15.8693 -0.0327,16.18129 -1.79062,17.09035 -1.17656,0.60843 -1.95949,0.61107 -3.04347,0.0103 z"
     id="path300" /><path
     style="fill:#000000;stroke-width:0.348028"
     d="m 131.38051,263.06832 c -0.47854,-0.18599 -1.14066,-0.68359 -1.47138,-1.10579 -0.55379,-0.70697 -0.60192,-2.3636 -0.60905,-20.96282 -0.009,-22.30172 -0.10756,-21.31067 2.20539,-22.07401 1.36184,-0.44945 2.49843,-0.11958 3.52933,1.02429 0.67635,0.75047 0.69876,1.33181 0.79135,20.52914 0.0593,12.29187 -0.0335,20.09547 -0.24549,20.65312 -0.58863,1.54821 -2.69723,2.52017 -4.20015,1.93607 z"
     id="path339" /><path
     style="fill:#000000;stroke-width:0.348028"
     d="m 101.10209,252.93339 c -0.47854,-0.24688 -1.1439,-0.99484 -1.478579,-1.66213 -0.549146,-1.0949 -0.608561,-2.58088 -0.609049,-15.23255 -6.06e-4,-15.69966 0.0341,-15.96303 2.242398,-17.0161 1.16324,-0.55471 1.31144,-0.55471 2.47468,0 2.20699,1.05244 2.24294,1.32396 2.24294,16.94027 0,14.42031 -0.0934,15.48433 -1.45838,16.61626 -0.81615,0.6768 -2.45848,0.84721 -3.41401,0.35425 z"
     id="path378" /><path
     style="fill:#000000;stroke-width:0.348028"
     d="m 70.74928,242.73098 c -1.550386,-0.84148 -1.721452,-2.18351 -1.601206,-12.56166 0.10282,-8.8742 0.151729,-9.49472 0.805522,-10.21975 1.031159,-1.14353 2.167706,-1.47325 3.52933,-1.02387 2.20093,0.72637 2.21313,0.79305 2.21313,12.09498 v 10.21616 l -1.017312,1.01731 c -1.140358,1.14036 -2.420702,1.29572 -3.929464,0.47683 z"
     id="path417" /></svg>
