<?xml version="1.0" encoding="UTF-8" standalone="no"?>
<svg
   data-name="Layer 1"
   id="Layer_1"
   viewBox="0 0 32 32"
   version="1.1"
   sodipodi:docname="6363279_battery_cable_charge_electricity_energy_icon.svg"
   inkscape:version="1.1 (c68e22c387, 2021-05-23)"
   xmlns:inkscape="http://www.inkscape.org/namespaces/inkscape"
   xmlns:sodipodi="http://sodipodi.sourceforge.net/DTD/sodipodi-0.dtd"
   xmlns="http://www.w3.org/2000/svg"
   xmlns:svg="http://www.w3.org/2000/svg">
  <defs
     id="defs15" />
  <sodipodi:namedview
     id="namedview13"
     pagecolor="#ffffff"
     bordercolor="#666666"
     borderopacity="1.0"
     inkscape:pageshadow="2"
     inkscape:pageopacity="0.0"
     inkscape:pagecheckerboard="0"
     showgrid="false"
     inkscape:zoom="26.9375"
     inkscape:cx="16"
     inkscape:cy="15.944316"
     inkscape:window-width="1857"
     inkscape:window-height="1051"
     inkscape:window-x="54"
     inkscape:window-y="-9"
     inkscape:window-maximized="1"
     inkscape:current-layer="Layer_1" />
  <path
     d="M8,9A1,1,0,0,1,7,8V5A1,1,0,0,1,9,5V8A1,1,0,0,1,8,9Z"
     id="path2" />
  <path
     d="M12,9a1,1,0,0,1-1-1V5a1,1,0,0,1,2,0V8A1,1,0,0,1,12,9Z"
     id="path4" />
  <path
     d="M10,17a5,5,0,0,1-5-5V8A1,1,0,0,1,6,7h8a1,1,0,0,1,1,1v4A5,5,0,0,1,10,17ZM7,9v3a3,3,0,0,0,6,0V9Z"
     id="path6" />
  <path
     d="M14,28a5,5,0,0,1-5-5V16a1,1,0,0,1,2,0v7a3,3,0,0,0,6,0V19a1,1,0,0,1,2,0v4A5,5,0,0,1,14,28Z"
     id="path8" />
  <path
     d="M26,28a1,1,0,0,1-1-1V14a3,3,0,0,0-6,0v5a1,1,0,0,1-2,0V14a5,5,0,0,1,10,0V27A1,1,0,0,1,26,28Z"
     id="path10" />
  <path
     style="fill:#000000;stroke-width:0.037123"
     d="M 13.457077,27.951852 C 12.110752,27.785295 10.89127,27.104796 10.10065,26.078886 9.685845,25.540635 9.4801169,25.160454 9.2802428,24.562789 9.0229884,23.793546 9.0302292,23.911179 9.0129593,20.220621 9.0011504,17.697166 8.9866806,16.883652 8.9534352,16.874109 7.7902038,16.540195 7.2037803,16.213275 6.4929325,15.502427 5.8892615,14.898756 5.5327915,14.32478 5.2722595,13.53694 5.0379932,12.828526 5.0301624,12.717898 5.0301624,10.116757 V 7.7732785 L 5.1262465,7.5804627 C 5.1790928,7.4744141 5.2911241,7.3287624 5.375205,7.2567922 5.6044013,7.0606088 5.8056136,7.0162413 6.4661346,7.0162413 H 7.0348028 L 7.0356181,5.8932715 C 7.0365124,4.661478 7.0418179,4.627321 7.2751978,4.3508432 7.6275723,3.9333961 8.3499213,3.9257022 8.7097838,4.335563 8.9583217,4.618632 8.9634795,4.6501883 8.964382,5.8932715 l 8.152e-4,1.1229698 h 1.0184323 1.0184325 l 0.01173,-1.1229698 c 0.01138,-1.089501 0.01431,-1.1282129 0.09837,-1.2988858 0.184273,-0.3741712 0.624117,-0.6228511 1.002798,-0.5669652 0.230226,0.033977 0.505863,0.1877889 0.639978,0.3571228 0.207218,0.2616335 0.219544,0.3479932 0.219544,1.5381712 v 1.0873938 l 0.640371,0.012347 c 0.631571,0.012178 0.643137,0.013878 0.841599,0.1237162 0.225616,0.1248661 0.421045,0.3639634 0.485515,0.5940006 0.02953,0.1053668 0.03728,0.8496805 0.02666,2.5614849 -0.01625,2.620107 -0.01042,2.540642 -0.237206,3.229666 -0.405799,1.232874 -1.289857,2.281361 -2.419703,2.86975 -0.336941,0.175469 -0.825213,0.362133 -1.185781,0.453319 l -0.159449,0.04032 0.0131,3.292781 c 0.01283,3.224747 0.01473,3.298428 0.09185,3.566084 0.310205,1.076533 1.111851,1.881747 2.156405,2.166003 0.418103,0.113779 1.139464,0.112622 1.5471,-0.0025 1.179427,-0.333034 2.019979,-1.268055 2.207308,-2.455386 0.02455,-0.155625 0.03817,-1.937346 0.03835,-5.018195 1.86e-4,-3.17316 0.01356,-4.874388 0.03984,-5.067285 0.22968,-1.685773 1.246047,-3.098154 2.761719,-3.8377851 0.788889,-0.3849693 1.506195,-0.5386495 2.358809,-0.5053661 0.962108,0.037557 1.777327,0.2992085 2.564057,0.8229557 1.03987,0.6922705 1.749738,1.6935905 2.089471,2.9473495 l 0.116774,0.43095 0.01004,6.953786 c 0.0069,4.760228 -0.0022,6.999343 -0.02885,7.098207 -0.0568,0.210954 -0.249692,0.439497 -0.480248,0.569022 -0.169634,0.0953 -0.241163,0.113287 -0.445476,0.112026 -0.135526,-8.36e-4 -0.303273,-0.0273 -0.378505,-0.05972 -0.206547,-0.089 -0.421865,-0.304779 -0.519384,-0.520499 l -0.08796,-0.194586 -0.01856,-6.904872 -0.01856,-6.904872 -0.08779,-0.259861 c -0.282912,-0.837446 -0.833685,-1.478777 -1.576271,-1.835441 -0.490673,-0.23567 -0.704398,-0.279952 -1.342902,-0.278234 -0.529128,0.0014 -0.574398,0.0075 -0.909513,0.122128 -0.494319,0.169082 -0.817977,0.371405 -1.191217,0.744645 -0.371771,0.371771 -0.573869,0.69424 -0.746561,1.191217 l -0.122546,0.352669 -0.02064,5.104408 c -0.02062,5.098035 -0.02074,5.10486 -0.102804,5.46613 -0.229665,1.011097 -0.660125,1.797674 -1.378284,2.518529 -0.718685,0.721383 -1.546594,1.170716 -2.524122,1.369924 -0.432495,0.08814 -1.130873,0.121546 -1.524032,0.07291 z M 10.87703,14.884709 c 0.8137,-0.250678 1.473504,-0.815717 1.837093,-1.573239 0.277007,-0.577131 0.272626,-0.538522 0.287806,-2.536528 l 0.01361,-1.7911833 H 10.004958 6.9943789 l 0.010931,1.8097443 0.010931,1.809745 0.1228469,0.352668 c 0.3382298,0.970989 1.1102243,1.701934 2.0637331,1.953997 0.497848,0.131609 1.1994831,0.121046 1.6742091,-0.0252 z"
     id="path54" />
</svg>
