<?xml version="1.0" encoding="UTF-8" standalone="no"?>
<svg
   version="1.1"
   width="100px"
   height="100px"
   style="shape-rendering:geometricPrecision; text-rendering:geometricPrecision; image-rendering:optimizeQuality; fill-rule:evenodd; clip-rule:evenodd"
   id="svg22"
   sodipodi:docname="Без названия.svg"
   inkscape:version="1.1 (c68e22c387, 2021-05-23)"
   xmlns:inkscape="http://www.inkscape.org/namespaces/inkscape"
   xmlns:sodipodi="http://sodipodi.sourceforge.net/DTD/sodipodi-0.dtd"
   xmlns="http://www.w3.org/2000/svg"
   xmlns:svg="http://www.w3.org/2000/svg">
  <defs
     id="defs26" />
  <sodipodi:namedview
     id="namedview24"
     pagecolor="#ffffff"
     bordercolor="#666666"
     borderopacity="1.0"
     inkscape:pageshadow="2"
     inkscape:pageopacity="0.0"
     inkscape:pagecheckerboard="0"
     showgrid="false"
     inkscape:zoom="8.62"
     inkscape:cx="50"
     inkscape:cy="49.709977"
     inkscape:window-width="1857"
     inkscape:window-height="1051"
     inkscape:window-x="54"
     inkscape:window-y="-9"
     inkscape:window-maximized="1"
     inkscape:current-layer="svg22" />
  <g
     id="g4">
    <path
       style="opacity:0.795"
       fill="#000000"
       d="M 47.5,14.5 C 53.1041,16.0621 57.9375,19.0621 62,23.5C 62.2511,21.567 62.7511,19.7337 63.5,18C 67.1667,17.3333 70.8333,17.3333 74.5,18C 75.1457,23.4478 75.8124,28.9478 76.5,34.5C 79.9748,36.8076 83.3081,39.3076 86.5,42C 88.607,43.2635 89.607,45.0968 89.5,47.5C 87.5,47.5 85.5,47.5 83.5,47.5C 83.6665,59.5046 83.4999,71.5046 83,83.5C 71.9073,84.1614 60.7406,84.4948 49.5,84.5C 38.2594,84.4948 27.0927,84.1614 16,83.5C 15.5001,71.5046 15.3335,59.5046 15.5,47.5C 13.5,47.5 11.5,47.5 9.5,47.5C 9.74381,44.7374 11.0771,42.5707 13.5,41C 25.0834,32.3884 36.4168,23.5551 47.5,14.5 Z M 40.5,61.5 C 37.0406,62.436 34.2072,64.436 32,67.5C 31.4487,69.3533 32.1153,70.6867 34,71.5C 37.1117,68.8991 39.6117,65.8991 41.5,62.5C 43.8522,63.566 46.1856,64.7327 48.5,66C 47.3781,69.4085 47.2114,72.9085 48,76.5C 49,77.8333 50,77.8333 51,76.5C 51.7599,72.7745 51.5932,69.1078 50.5,65.5C 52.955,64.6452 55.2883,63.6452 57.5,62.5C 61.8215,55.8731 61.3215,49.5397 56,43.5C 56.1069,40.4426 54.9402,38.1093 52.5,36.5C 51.3372,31.1977 51.1705,25.8643 52,20.5C 55.728,23.899 59.728,26.899 64,29.5C 64.772,29.3552 65.4387,29.0219 66,28.5C 66.4966,26.1902 66.6633,23.8568 66.5,21.5C 68.1667,21.5 69.8333,21.5 71.5,21.5C 71.3341,26.5111 71.5007,31.5111 72,36.5C 75.0036,38.6744 77.8369,41.0077 80.5,43.5C 79.5199,55.783 79.1866,68.1164 79.5,80.5C 59.5,80.5 39.5,80.5 19.5,80.5C 19.8134,68.1164 19.4801,55.783 18.5,43.5C 27.8308,35.6739 37.3308,28.0072 47,20.5C 47.8295,25.8643 47.6628,31.1977 46.5,36.5C 44.0598,38.1093 42.8931,40.4426 43,43.5C 38.1148,48.9739 37.2815,54.9739 40.5,61.5 Z M 48.5,39.5 C 49.4959,39.4142 50.3292,39.7476 51,40.5C 51.79,45.3979 53.6234,49.7312 56.5,53.5C 55.0129,60.3857 51.0129,62.2191 44.5,59C 43.1524,57.4259 42.4858,55.5925 42.5,53.5C 45.4527,49.3296 47.4527,44.663 48.5,39.5 Z"
       id="path2" />
  </g>
  <g
     id="g8">
    <path
       style="opacity:0.752"
       fill="#000000"
       d="M 25.5,51.5 C 29.7032,51.0761 33.7032,51.5761 37.5,53C 34.2762,55.4766 30.6095,56.1432 26.5,55C 24.6269,54.0471 24.2935,52.8804 25.5,51.5 Z"
       id="path6" />
  </g>
  <g
     id="g12">
    <path
       style="opacity:0.752"
       fill="#000000"
       d="M 62.5,51.5 C 66.7032,51.0761 70.7032,51.5761 74.5,53C 71.2762,55.4766 67.6095,56.1432 63.5,55C 61.6269,54.0471 61.2935,52.8804 62.5,51.5 Z"
       id="path10" />
  </g>
  <g
     id="g16">
    <path
       style="opacity:0.697"
       fill="#000000"
       d="M 40.5,61.5 C 40.5,62.1667 40.8333,62.5 41.5,62.5C 39.6117,65.8991 37.1117,68.8991 34,71.5C 32.1153,70.6867 31.4487,69.3533 32,67.5C 34.2072,64.436 37.0406,62.436 40.5,61.5 Z"
       id="path14" />
  </g>
  <g
     id="g20">
    <path
       style="opacity:0.696"
       fill="#000000"
       d="M 57.5,62.5 C 58.7382,61.5876 60.0715,61.4209 61.5,62C 63.3333,63.8333 65.1667,65.6667 67,67.5C 67.5513,69.3533 66.8847,70.6867 65,71.5C 61.8883,68.8991 59.3883,65.8991 57.5,62.5 Z"
       id="path18" />
  </g>
  <path
     style="fill:#000000;stroke-width:0.116009"
     d="M 38.399072,84.340008 C 30.103379,84.156329 16.304077,83.570125 16.127862,83.39391 16.093602,83.359651 16.016131,82.161762 15.955704,80.731935 15.681399,74.241384 15.563037,67.49395 15.554486,57.85973 l -0.0092,-10.411732 -2.997436,-1.01e-4 -2.9974363,-1.01e-4 0.076047,-0.49304 c 0.2369768,-1.536403 0.9906643,-3.145631 1.9909763,-4.251011 0.353147,-0.390242 1.120362,-1.060783 1.704921,-1.490094 8.604974,-6.319645 22.335429,-16.991266 32.648211,-25.374928 l 1.538971,-1.251091 0.72321,0.202468 c 1.905306,0.533405 5.141916,2.00141 7.088185,3.214937 1.672194,1.042636 3.556644,2.535875 5.138884,4.072054 0.949598,0.921952 1.562598,1.438375 1.591841,1.341048 0.02616,-0.08705 0.129897,-0.604667 0.230534,-1.150253 0.228722,-1.239983 0.674356,-2.789967 1.039568,-3.615778 l 0.279186,-0.631287 1.015519,-0.142064 c 2.832962,-0.396311 5.303958,-0.411168 8.218346,-0.04941 1.314498,0.163166 1.500569,0.213515 1.587197,0.429485 0.05397,0.134558 0.392783,2.724349 0.752913,5.755091 0.360129,3.030743 0.794384,6.643531 0.965009,8.02842 l 0.310226,2.51798 1.508121,1.024782 c 1.983472,1.347789 4.152157,2.96229 6.786543,5.052318 2.74135,2.174889 3.442239,2.801744 3.853105,3.446106 0.38702,0.606963 0.740638,1.745902 0.837432,2.697215 l 0.06787,0.667054 h -3.017254 -3.017256 l -0.0024,9.077726 c -0.0013,4.992749 -0.05132,11.139791 -0.111101,13.660093 -0.143249,6.039479 -0.371832,13.154705 -0.424558,13.215404 -0.101647,0.117016 -10.5945,0.607004 -17.675384,0.825393 -5.178877,0.159726 -21.629946,0.229312 -26.856149,0.113596 z m 41.075206,-8.788964 c -0.142539,-8.771422 0.232546,-20.826738 0.928538,-29.843387 l 0.174617,-2.262181 -0.396034,-0.348028 c -0.217819,-0.191416 -1.015955,-0.896781 -1.773636,-1.567478 -1.58613,-1.404041 -3.15575,-2.682025 -4.973888,-4.049733 -0.701856,-0.527977 -1.308245,-1.020119 -1.347532,-1.093648 -0.23467,-0.43922 -0.561772,-6.98788 -0.564407,-11.299582 l -0.0022,-3.62529 h -2.552881 -2.552882 l 0.07278,0.957077 c 0.08635,1.135478 -0.118173,3.811872 -0.395765,5.179045 l -0.197705,0.97371 -0.597907,0.336298 c -1.18257,0.665147 -1.069743,0.690024 -3.193928,-0.70425 -3.199652,-2.10019 -6.308131,-4.45624 -8.969185,-6.79813 l -1.160093,-1.020953 -0.07946,0.451595 c -0.312707,1.777218 -0.465573,4.548028 -0.402529,7.296142 0.06711,2.925479 0.192196,4.231097 0.663669,6.927404 l 0.25791,1.474969 0.451403,0.312823 c 0.788624,0.546517 1.796115,1.729632 2.230525,2.619347 0.50651,1.03738 0.744715,1.941995 0.841221,3.194645 0.06596,0.856153 0.112697,1.001707 0.447081,1.392359 1.816566,2.12225 3.185371,4.807685 3.715517,7.289408 0.241511,1.130559 0.272184,3.375741 0.06248,4.573267 -0.223255,1.274918 -0.830151,3.039085 -1.514889,4.403583 -0.961532,1.916075 -1.070078,2.044198 -2.221977,2.622717 -1.198312,0.601828 -3.844457,1.736082 -5.12366,2.196226 -0.714627,0.257058 -0.88959,0.3644 -0.832675,0.510854 0.16288,0.419131 0.633833,2.572156 0.763769,3.491678 0.335888,2.37699 0.05093,6.799927 -0.486758,7.555035 -0.120713,0.169527 -0.432522,0.413636 -0.692908,0.542464 -0.593897,0.293837 -1.039838,0.190415 -1.601722,-0.371469 -0.534715,-0.534716 -0.705365,-1.414191 -0.790135,-4.07212 -0.07557,-2.369313 0.0319,-3.448154 0.546436,-5.485479 0.262207,-1.03823 0.307509,-1.369738 0.197364,-1.444283 -0.50636,-0.342698 -6.889053,-3.453024 -7.088896,-3.454462 -0.400641,-0.0029 -0.530563,-0.151012 -0.820866,-0.935876 -0.15145,-0.409465 -0.468816,-1.240422 -0.705255,-1.846571 -0.869154,-2.228199 -1.022192,-3.045387 -1.031964,-5.510441 -0.0094,-2.371052 0.08421,-3.000904 0.701392,-4.719077 0.615184,-1.712629 1.749423,-3.659933 2.969496,-5.098144 l 0.636641,-0.750466 0.05977,-1.096668 c 0.126725,-2.325176 1.136098,-4.184917 3.082293,-5.679032 0.330635,-0.253832 0.399859,-0.405838 0.554728,-1.218097 0.642842,-3.371591 0.920141,-7.245556 0.746385,-10.427252 -0.11163,-2.044106 -0.322982,-4.150709 -0.451851,-4.503748 -0.05854,-0.160366 -0.456472,0.101478 -2.101734,1.382961 -7.380407,5.74855 -16.283215,12.926933 -23.752261,19.15158 l -2.697216,2.24784 v 0.552823 c 0,0.304052 0.05109,1.199903 0.113526,1.990782 0.64177,8.128938 0.986514,18.892959 0.905259,28.265106 l -0.05456,6.293504 H 49.511285 79.554871 Z M 52.429114,60.056763 C 54.30523,59.1658 55.742133,57.030369 56.42856,54.113052 l 0.137723,-0.585323 -0.977925,-1.464379 c -1.153526,-1.727331 -2.202056,-3.738733 -2.935016,-5.630258 -0.513358,-1.324811 -1.33214,-4.277019 -1.496936,-5.397373 -0.06604,-0.448957 -0.166422,-0.626357 -0.531032,-0.938451 -0.489716,-0.419178 -1.119518,-0.654113 -1.753514,-0.654113 h -0.405166 l -0.373442,1.537123 c -0.979327,4.031 -2.626953,7.849159 -4.900764,11.356882 l -0.800611,1.235073 0.122186,0.983269 c 0.113613,0.914281 0.447409,2.152481 0.726544,2.695078 0.06565,0.12761 0.346238,0.576593 0.623532,0.99774 0.464689,0.705757 0.574783,0.797682 1.405863,1.173852 1.92385,0.870789 3.129486,1.140277 4.910728,1.097667 1.275402,-0.03051 1.385102,-0.0531 2.248384,-0.463076 z"
     id="path65" />
  <path
     style="fill:#000000;stroke-width:0.116009"
     d="m 28.596288,55.382629 c -1.543893,-0.282909 -2.086216,-0.449847 -2.64328,-0.813654 -1.033256,-0.674798 -1.308782,-1.440027 -0.845478,-2.348179 0.394657,-0.773591 0.367745,-0.76674 3.011164,-0.766561 2.444899,1.66e-4 3.726995,0.121426 5.698011,0.538915 0.982006,0.208003 3.148288,0.838982 3.403437,0.991329 0.148297,0.08855 -0.876635,0.774864 -1.934972,1.2957 -1.632812,0.803552 -2.776022,1.074513 -4.716725,1.117947 -0.925174,0.02071 -1.812645,0.01373 -1.972157,-0.0155 z"
     id="path104" />
  <path
     style="fill:#000000;stroke-width:0.116009"
     d="m 63.691889,70.23805 c -1.280665,-1.170249 -2.878699,-2.953403 -3.97755,-4.43832 -0.903395,-1.22079 -2.11614,-3.176213 -2.043135,-3.294338 0.03291,-0.05325 0.326944,-0.232166 0.653413,-0.397601 0.769014,-0.389689 1.705576,-0.476574 2.53059,-0.234764 0.58921,0.172697 0.80879,0.363941 3.413935,2.973383 l 2.784222,2.788815 v 0.975178 c 0,0.897837 -0.02789,1.015074 -0.3517,1.478212 -0.353033,0.50494 -1.33138,1.257093 -1.635136,1.257093 -0.08936,0 -0.707947,-0.498446 -1.374639,-1.107658 z"
     id="path143" />
  <path
     style="fill:#000000;stroke-width:0.116009"
     d="m 65.603248,55.382629 c -2.069027,-0.379137 -2.996935,-0.801041 -3.490805,-1.587211 -0.320925,-0.510868 -0.249511,-1.322505 0.164075,-1.864745 l 0.304556,-0.399293 1.357762,-0.08484 c 2.185663,-0.136565 5.110481,0.119997 7.335467,0.643459 1.077569,0.253515 2.801839,0.790643 2.941499,0.916308 0.111088,0.09996 -1.019109,0.836694 -2.058029,1.341562 -1.521713,0.739483 -2.693158,1.007972 -4.582367,1.050254 -0.925174,0.02071 -1.812645,0.01373 -1.972158,-0.0155 z"
     id="path182" />
</svg>
