<?xml version="1.0" encoding="UTF-8" standalone="no"?>
<svg
   enable-background="new 0 0 64 64"
   height="64px"
   id="Layer_1"
   version="1.1"
   viewBox="0 0 64 64"
   width="64px"
   xml:space="preserve"
   sodipodi:docname="li.svg"
   inkscape:version="1.1 (c68e22c387, 2021-05-23)"
   xmlns:inkscape="http://www.inkscape.org/namespaces/inkscape"
   xmlns:sodipodi="http://sodipodi.sourceforge.net/DTD/sodipodi-0.dtd"
   xmlns="http://www.w3.org/2000/svg"
   xmlns:svg="http://www.w3.org/2000/svg"><defs
     id="defs7" /><sodipodi:namedview
     id="namedview5"
     pagecolor="#ffffff"
     bordercolor="#666666"
     borderopacity="1.0"
     inkscape:pageshadow="2"
     inkscape:pageopacity="0.0"
     inkscape:pagecheckerboard="0"
     showgrid="false"
     inkscape:zoom="13.46875"
     inkscape:cx="31.962877"
     inkscape:cy="31.888631"
     inkscape:window-width="1842"
     inkscape:window-height="1051"
     inkscape:window-x="69"
     inkscape:window-y="-9"
     inkscape:window-maximized="1"
     inkscape:current-layer="Layer_1" /><path
     d="M38.236,0l-0.204,21.061L56.23,10.428l6.133,11.451L43.962,31.898l18.401,10.427l-6.133,11.45L38.032,42.939L38.236,64  h-12.27l0.205-21.061L7.974,53.57L1.636,42.325l18.402-10.427L1.636,21.879l6.338-11.655l18.199,10.837L25.968,0H38.236z"
     id="path2" /><path
     style="fill:#2aff80;stroke-width:0.0742459"
     d="m 26.02144,61.308585 c 0.07768,-4.825244 0.195213,-18.337098 0.15982,-18.372491 -0.01898,-0.01897 -4.099474,2.340483 -9.067775,5.243241 -4.968301,2.902758 -9.0598513,5.277742 -9.0923346,5.277742 -0.040889,0 -5.9031571,-10.323667 -6.2878929,-11.073208 -0.013462,-0.02623 4.1000972,-2.381679 9.1412435,-5.234338 5.041145,-2.85266 9.156833,-5.217485 9.145973,-5.255167 -0.01086,-0.03768 -4.127334,-2.304838 -9.14772,-5.038126 -5.0203858,-2.733288 -9.1372329,-4.978073 -9.1485489,-4.988412 -0.011316,-0.01034 1.3905963,-2.613669 3.1153607,-5.785178 2.0877381,-3.838949 3.1677987,-5.754155 3.2312622,-5.729802 0.05243,0.02012 4.141166,2.445898 9.086082,5.390618 4.944915,2.944721 9.006453,5.338339 9.025639,5.319153 0.03609,-0.03609 -0.0857,-14.1316675 -0.160326,-18.5568165 L 25.979961,0 h 6.091226 6.091226 l 0.0012,1.9489559 c 6.68e-4,1.0719258 -0.03766,5.8002146 -0.08511,10.5073081 -0.04745,4.707094 -0.0688,8.575829 -0.04744,8.597189 0.02136,0.02136 4.101409,-2.334772 9.066776,-5.235847 4.965365,-2.901076 9.054078,-5.274683 9.086026,-5.274683 0.05858,0 6.13088,11.288554 6.092195,11.325538 -0.01144,0.01094 -4.128574,2.256372 -9.149182,4.989853 -5.020608,2.733481 -9.136824,5.00025 -9.147146,5.037264 -0.01032,0.03702 4.107205,2.401837 9.150059,5.255161 5.042854,2.853325 9.159069,5.211248 9.147145,5.239829 -0.01192,0.02858 -1.374811,2.579861 -3.028639,5.66951 -2.23789,4.180783 -3.034768,5.607365 -3.115683,5.577741 -0.0598,-0.02189 -4.148293,-2.445201 -9.085546,-5.38513 -4.937253,-2.939929 -8.994378,-5.327771 -9.015833,-5.306315 -0.02146,0.02145 -1.48e-4,3.890268 0.04727,8.597362 0.04745,4.707094 0.08575,9.435382 0.08511,10.507308 L 38.162413,64 h -6.09215 -6.092148 z"
     id="path1787" /><path
     style="fill:#00ff66;stroke-width:0.0742459"
     d="m 26.027748,63.053364 c 0.04874,-1.252982 0.181431,-14.028036 0.181228,-17.447796 -8.7e-5,-1.480278 -0.02159,-2.691415 -0.04778,-2.691415 -0.06771,0 -1.551224,0.854181 -7.711079,4.439907 C 7.0121064,54.012263 8.0759589,53.413153 7.9630058,53.259885 7.8474964,53.103146 5.7034085,49.3483 3.5816482,45.587007 2.7869292,44.17819 2.0563906,42.885105 1.9582291,42.713484 L 1.7797536,42.401446 2.3933571,42.039805 c 0.3374819,-0.198903 1.983441,-1.141553 3.657687,-2.094779 7.9333919,-4.516847 13.3937069,-7.63862 13.6883459,-7.825907 0.178243,-0.1133 0.29518,-0.233695 0.259861,-0.267544 C 19.885245,31.742312 17.051171,30.18014 9.3549884,25.984342 5.2102088,23.724695 1.8083769,21.868458 1.795362,21.859372 1.7540959,21.830561 5.9892682,14.026893 7.260805,11.788824 l 0.7896185,-1.38983 0.3367372,0.194289 c 0.1852055,0.106858 2.3079673,1.364052 4.7172473,2.793763 11.701437,6.943847 12.982239,7.698801 13.06125,7.698801 0.08594,0 -0.03348,-17.8639854 -0.135623,-20.28770315 L 25.996401,0 h 6.093702 6.093702 l -0.04733,2.0232019 c -0.07068,3.0211806 -0.152102,19.0626451 -0.09675,19.0626451 0.06308,0 2.527799,-1.418329 7.807152,-4.492638 7.84036,-4.565653 10.273278,-5.97604 10.308671,-5.97604 0.04212,0 0.185057,0.258122 2.01467,3.638051 2.238239,4.134804 4.067151,7.578978 4.037692,7.603715 -0.01481,0.01243 -1.580523,0.867472 -3.479363,1.900083 -5.238576,2.848797 -12.843141,7.010231 -13.866693,7.588248 -0.500927,0.282882 -0.89283,0.54337 -0.870894,0.578862 0.05789,0.09367 2.133001,1.290439 9.688863,5.587828 8.281595,4.710149 8.507421,4.842474 8.476444,4.96685 -0.03281,0.131748 -3.870886,7.308209 -5.01104,9.369682 -0.493737,0.89271 -0.940611,1.639575 -0.993052,1.659698 -0.09806,0.03763 -0.436406,-0.159675 -9.637085,-5.619694 -6.220345,-3.691381 -8.408965,-4.976339 -8.476013,-4.976339 -0.05488,0 0.02719,16.061485 0.0974,19.062645 L 38.183805,64 h -6.09644 -6.096439 z"
     id="path1863" /></svg>
