<?xml version="1.0" encoding="UTF-8" standalone="no"?>
<svg
   height="48px"
   id="Слой_1"
   style="enable-background:new 0 0 48 48;"
   version="1.1"
   viewBox="0 0 48 48"
   width="48px"
   xml:space="preserve"
   sodipodi:docname="logo.svg"
   inkscape:version="1.1 (c68e22c387, 2021-05-23)"
   xmlns:inkscape="http://www.inkscape.org/namespaces/inkscape"
   xmlns:sodipodi="http://sodipodi.sourceforge.net/DTD/sodipodi-0.dtd"
   xmlns="http://www.w3.org/2000/svg"
   xmlns:svg="http://www.w3.org/2000/svg"><defs
     id="defs13" /><sodipodi:namedview
     id="namedview11"
     pagecolor="#ffffff"
     bordercolor="#666666"
     borderopacity="1.0"
     inkscape:pageshadow="2"
     inkscape:pageopacity="0.0"
     inkscape:pagecheckerboard="0"
     showgrid="false"
     inkscape:zoom="17.958333"
     inkscape:cx="24"
     inkscape:cy="23.916473"
     inkscape:window-width="1857"
     inkscape:window-height="1051"
     inkscape:window-x="54"
     inkscape:window-y="-9"
     inkscape:window-maximized="1"
     inkscape:current-layer="Слой_1" /><g
     id="g8"><g
       id="g6"><polygon
         points="19,24.2 23.2,16 19,16 29.3,6.2 24.8,14 29,14    "
         style="fill:#7D50F9;"
         id="polygon2" /><path
         d="M40,16c0-8.8-7.2-16-16-16S8,7.2,8,16c0,6.1,3.5,11.7,9,14.4V36c-1.1,0-2,0.9-2,2v2     c0,1.1,0.9,2,2,2h1v1c0,1.1,0.9,2,2,2h1v1c0,1.1,0.9,2,2,2h2c1.1,0,2-0.9,2-2v-1h1c1.1,0,2-0.9,2-2v-1h1c1.1,0,2-0.9,2-2v-2     c0-1.1-0.9-2-2-2v-5.6C36.5,27.7,40,22.1,40,16z M25,46h-2v-1h2V46z M28,43h-8v-1h8V43z M31,40H17v-2h14L31,40z M29.6,28.8     L29,29.1V36h-4v-6h-2v6h-4v-6.9l-0.6-0.3C13.3,26.6,10,21.6,10,16c0-7.7,6.3-14,14-14s14,6.3,14,14C38,21.6,34.7,26.6,29.6,28.8z     "
         style="fill:#303033;"
         id="path4" /></g></g><path
     style="fill:#000000;stroke:none;stroke-width:0.0556845"
     d="m 22.703497,47.941017 c -0.530897,-0.09384 -1.011096,-0.394649 -1.29975,-0.814193 -0.276569,-0.401979 -0.382865,-0.823657 -0.382865,-1.518826 v -0.600177 l -0.709977,-0.02953 c -0.796764,-0.03314 -1.06995,-0.108118 -1.475234,-0.404889 -0.566693,-0.414965 -0.82175,-1.04018 -0.82175,-2.014336 v -0.572987 h -0.572987 c -0.974025,0 -1.598766,-0.254817 -2.01471,-0.82175 -0.362157,-0.493623 -0.391507,-0.657777 -0.390704,-2.185211 6.79e-4,-1.291593 0.0075,-1.381182 0.128284,-1.681761 0.25277,-0.62911 0.925259,-1.161484 1.576258,-1.247842 l 0.271539,-0.03602 -10e-4,-2.818813 -0.001,-2.818812 -0.567672,-0.306264 C 14.173653,28.845868 12.17917,27.019122 10.726917,24.835267 7.8254296,20.472092 7.2349569,15.068809 9.1294402,10.21711 10.836097,5.8464278 14.482973,2.3678571 18.932715,0.86626196 20.616717,0.297984 22.167675,0.04733179 24,0.04733179 c 1.493761,0 2.535688,0.12954109 3.953596,0.49154411 5.476558,1.3982076 9.83361,5.6595935 11.419244,11.1685141 0.929084,3.227892 0.74345,6.917704 -0.508238,10.102132 -0.576453,1.466554 -1.604209,3.205974 -2.593893,4.390014 -1.291368,1.544971 -2.992809,2.942225 -4.712598,3.87007 l -0.567672,0.306264 -10e-4,2.818812 -0.001,2.818813 0.271539,0.03602 c 0.651,0.08636 1.323488,0.618732 1.576259,1.247842 0.12077,0.300579 0.127604,0.390168 0.128283,1.681761 8.02e-4,1.527434 -0.02855,1.691588 -0.390704,2.185211 -0.415946,0.566933 -1.040687,0.82175 -2.014712,0.82175 h -0.572987 v 0.572987 c 0,0.974156 -0.255057,1.599371 -0.82175,2.014336 -0.405284,0.296771 -0.67847,0.371749 -1.475234,0.404889 l -0.709977,0.02953 v 0.599273 c 0,0.727516 -0.122972,1.178247 -0.432565,1.585481 -0.215602,0.283599 -0.661824,0.593161 -1.014467,0.703776 -0.250502,0.07858 -2.441053,0.113167 -2.828589,0.04467 z m 2.326665,-2.418975 V 44.993039 H 24 22.969838 v 0.529003 0.529002 H 24 25.030162 Z m 3.006961,-3.006961 V 41.986079 H 24 19.962877 v 0.529002 0.529003 H 24 28.037123 Z m 3.006961,-3.50812 V 37.976798 H 24 16.955916 v 1.030163 1.030162 H 24 31.044084 Z M 23.025522,33.020882 V 30.013921 H 24 24.974478 v 3.006961 3.00696 h 2.032483 2.032482 v -3.454909 -3.45491 l 0.849188,-0.410688 c 0.467053,-0.225878 1.121178,-0.575786 1.453609,-0.777571 3.645065,-2.212545 6.051249,-5.951738 6.576894,-10.220445 0.09887,-0.802926 0.112417,-2.431096 0.02679,-3.219634 C 37.24935,8.0752689 32.221966,2.9489648 25.781903,2.0863263 c -0.891961,-0.119477 -2.671845,-0.119477 -3.563806,0 C 17.948264,2.6582652 14.235343,5.0872541 11.98953,8.7778435 10.97547,10.444269 10.265981,12.54075 10.051081,14.5058 c -0.082656,0.755803 -0.067222,2.415731 0.02979,3.203519 0.384938,3.126049 1.785088,6.000642 3.990007,8.191728 1.204811,1.197252 2.41557,2.031665 4.151864,2.861319 l 0.737819,0.352552 v 3.456462 3.456462 h 2.032482 2.032483 z"
     id="path52" /></svg>
